#!OML:ASF F:\VICON\USERDATA\INSTALL\rory3\rory3.ASF
:FULLY-SPECIFIED
:DEGREES
167
root 0.769839 17.9354 -0.657961 0.524204 -30.5561 2.39249
lowerback 0.763289 -1.71115 -4.75858
upperback -0.292463 -2.32161 2.50972
thorax -0.435863 -1.14583 5.28738
lowerneck -21.499 1.46493 -9.98295
upperneck 17.7174 4.23233 4.21682
head 8.7756 1.76999 3.63938
rclavicle -8.08308e-014 -1.59028e-014
rhumerus -34.8093 -8.91346 -70.673
rradius 39.6478
rwrist 13.6265
rhand -26.6395 12.0305
rfingers 7.12502
rthumb -0.0719331 -17.9492
lclavicle -8.08308e-014 -1.59028e-014
lhumerus 32.6764 -10.7285 57.6823
lradius 105.985
lwrist -3.58058
lhand -35.1536 28.8539
lfingers 7.12502
lthumb -8.29302 58.6711
rfemur -9.82772 2.78633 9.72083
rtibia 24.5209
rfoot -15.08 -9.86243
rtoes 0.416333
lfemur -0.838046 1.55121 -24.5026
ltibia 14.2844
lfoot -10.3167 6.61007
ltoes -11.8729
168
root 0.768081 17.9352 -0.659737 0.521977 -30.5321 2.41105
lowerback 0.785311 -1.74041 -4.80687
upperback -0.283394 -2.36204 2.5329
thorax -0.430845 -1.16637 5.33968
lowerneck -21.6097 1.47884 -10.0764
upperneck 17.449 4.273 4.2987
head 8.69482 1.80222 3.68193
rclavicle 6.13251e-014 1.43125e-014
rhumerus -34.7751 -8.82452 -70.6612
rradius 39.5797
rwrist 13.6565
rhand -26.6819 11.9124
rfingers 7.12502
rthumb -0.112836 -18.0673
lclavicle 6.13251e-014 1.43125e-014
lhumerus 32.9752 -10.3325 57.599
lradius 105.974
lwrist -3.39547
lhand -35.1761 28.7841
lfingers 7.12502
lthumb -8.31476 58.6005
rfemur -9.85003 2.72508 9.70713
rtibia 24.5388
rfoot -15.0495 -9.86527
rtoes 0.181103
lfemur -0.843266 1.50479 -24.5135
ltibia 14.2807
lfoot -10.3276 6.61536
ltoes -11.8238
169
root 0.766769 17.9343 -0.66098 0.540595 -30.5472 2.39139
lowerback 0.801363 -1.73519 -4.79722
upperback -0.263815 -2.35551 2.54293
thorax -0.420457 -1.16393 5.34482
lowerneck -21.8251 1.45339 -10.1437
upperneck 17.2408 4.26217 4.39059
head 8.65731 1.81127 3.72176
rclavicle 1.81888e-014 3.49861e-014
rhumerus -34.7438 -8.8428 -70.6386
rradius 39.5219
rwrist 13.7179
rhand -26.7583 11.8023
rfingers 7.12502
rthumb -0.18669 -18.1774
lclavicle 1.81888e-014 3.49861e-014
lhumerus 33.3472 -9.98627 57.524
lradius 105.869
lwrist -3.36413
lhand -35.0131 28.6078
lfingers 7.12502
lthumb -8.15738 58.4303
rfemur -9.87223 2.75375 9.72506
rtibia 24.5634
rfoot -15.0727 -9.82886
rtoes 0.233933
lfemur -0.848051 1.51934 -24.4856
ltibia 14.2693
lfoot -10.3352 6.59363
ltoes -11.5211
170
root 0.765398 17.9339 -0.662246 0.525875 -30.5569 2.43332
lowerback 0.842389 -1.7205 -4.84426
upperback -0.238771 -2.33794 2.5434
thorax -0.418025 -1.15565 5.37296
lowerneck -22.0063 1.40942 -10.2337
upperneck 16.9361 4.23513 4.45281
head 8.58258 1.81106 3.74912
rclavicle 6.36111e-015 -1.66979e-014
rhumerus -34.6988 -8.82469 -70.5825
rradius 39.4576
rwrist 13.7461
rhand -26.6812 11.8936
rfingers 7.12502
rthumb -0.112219 -18.0861
lclavicle 6.36111e-015 -1.66979e-014
lhumerus 33.73 -9.65722 57.4718
lradius 105.725
lwrist -3.47738
lhand -34.8487 28.3733
lfingers 7.12502
lthumb -7.9987 58.202
rfemur -9.88655 2.75358 9.68622
rtibia 24.5775
rfoot -15.062 -9.79916
rtoes 0.226704
lfemur -0.860613 1.49296 -24.5212
ltibia 14.2881
lfoot -10.3469 6.61967
ltoes -11.2694
171
root 0.764838 17.9354 -0.665424 0.571173 -30.5239 2.42724
lowerback 0.899858 -1.71075 -4.83717
upperback -0.253516 -2.32731 2.54863
thorax -0.466919 -1.14851 5.37675
lowerneck -22.1519 1.3612 -10.3928
upperneck 16.6623 4.19527 4.63743
head 8.50844 1.81321 3.82826
rclavicle -1.05356e-014 3.49861e-014
rhumerus -34.6908 -8.71374 -70.5619
rradius 39.3943
rwrist 13.6349
rhand -26.6039 11.9572
rfingers 7.12502
rthumb -0.0375658 -18.0225
lclavicle -1.05356e-014 3.49861e-014
lhumerus 34.0876 -9.37024 57.4054
lradius 105.66
lwrist -3.43437
lhand -34.8818 28.0453
lfingers 7.12502
lthumb -8.03067 57.8727
rfemur -9.94376 2.73658 9.7017
rtibia 24.5806
rfoot -15.067 -9.8635
rtoes 0.0358388
lfemur -0.932838 1.40885 -24.5281
ltibia 14.3197
lfoot -10.2986 6.74328
ltoes -11.7459
172
root 0.764488 17.9371 -0.668781 0.66451 -30.4956 2.30726
lowerback 0.953793 -1.72017 -4.71784
upperback -0.274169 -2.34078 2.56627
thorax -0.520724 -1.15359 5.32978
lowerneck -22.2858 1.34149 -10.434
upperneck 16.3738 4.17347 4.73873
head 8.43065 1.82245 3.86127
rclavicle -4.42793e-014 -1.59028e-015
rhumerus -34.694 -8.60961 -70.576
rradius 39.3158
rwrist 13.6214
rhand -26.4903 12.1192
rfingers 7.12502
rthumb 0.0721971 -17.8605
lclavicle -4.42793e-014 -1.59028e-015
lhumerus 34.3979 -9.06348 57.2328
lradius 105.628
lwrist -3.40707
lhand -35.0847 27.944
lfingers 7.12502
lthumb -8.2265 57.7639
rfemur -9.98162 2.7866 9.82374
rtibia 24.5867
rfoot -15.1796 -9.89185
rtoes 0.371203
lfemur -0.998148 1.34385 -24.4217
ltibia 14.3476
lfoot -10.275 6.80654
ltoes -12.1065
173
root 0.763029 17.9374 -0.671101 0.696038 -30.5021 2.26742
lowerback 1.00157 -1.72337 -4.68337
upperback -0.289858 -2.34664 2.56064
thorax -0.56457 -1.15496 5.30639
lowerneck -22.3846 1.32753 -10.3545
upperneck 16.0705 4.15311 4.66545
head 8.34933 1.82033 3.81386
rclavicle 1.64991e-014 -1.98785e-014
rhumerus -34.7062 -8.61824 -70.5616
rradius 39.2081
rwrist 13.7788
rhand -26.3983 12.1945
rfingers 7.12502
rthumb 0.161097 -17.7852
lclavicle 1.64991e-014 -1.98785e-014
lhumerus 34.7189 -8.77547 56.9907
lradius 105.525
lwrist -3.49719
lhand -35.3675 28.129
lfingers 7.12502
lthumb -8.49948 57.9379
rfemur -9.98813 2.82956 9.87009
rtibia 24.5711
rfoot -15.2172 -9.92588
rtoes 0.508659
lfemur -1.03283 1.2889 -24.3872
ltibia 14.3919
lfoot -10.2828 6.88141
ltoes -12.1646
174
root 0.761983 17.9384 -0.675011 0.736556 -30.4955 2.23911
lowerback 1.0239 -1.7337 -4.6717
upperback -0.259012 -2.361 2.57165
thorax -0.543476 -1.16358 5.31144
lowerneck -22.6103 1.30434 -10.3591
upperneck 15.7701 4.1508 4.64205
head 8.28597 1.82727 3.80232
rclavicle -3.926e-014 -9.54166e-015
rhumerus -34.627 -8.64351 -70.5517
rradius 39.1333
rwrist 13.9275
rhand -26.4368 12.0757
rfingers 7.12502
rthumb 0.123836 -17.9041
lclavicle -3.926e-014 -9.54166e-015
lhumerus 35.115 -8.40067 56.8285
lradius 105.436
lwrist -3.48702
lhand -35.3581 28.372
lfingers 7.12502
lthumb -8.49032 58.1813
rfemur -10.005 2.83285 9.91102
rtibia 24.5387
rfoot -15.161 -9.98544
rtoes 0.449348
lfemur -1.1001 1.25437 -24.3554
ltibia 14.4347
lfoot -10.2665 6.91671
ltoes -12.3736
175
root 0.760539 17.9402 -0.676528 0.751059 -30.4729 2.1588
lowerback 1.06483 -1.75574 -4.61329
upperback -0.200623 -2.39098 2.60505
thorax -0.503369 -1.18144 5.31346
lowerneck -22.8056 1.30322 -10.5324
upperneck 15.4374 4.18156 4.85432
head 8.19361 1.86715 3.90084
rclavicle -2.03009e-014 2.38542e-015
rhumerus -34.5282 -8.57727 -70.5704
rradius 39.0531
rwrist 13.9236
rhand -26.5616 11.8217
rfingers 7.12502
rthumb 0.00336759 -18.158
lclavicle -2.03009e-014 2.38542e-015
lhumerus 35.5247 -8.03013 56.6724
lradius 105.363
lwrist -3.40798
lhand -35.2702 28.4271
lfingers 7.12502
lthumb -8.40556 58.2399
rfemur -9.96153 2.80957 9.99814
rtibia 24.5237
rfoot -15.1243 -9.96616
rtoes 0.388919
lfemur -1.06557 1.17174 -24.2636
ltibia 14.4289
lfoot -10.316 6.8999
ltoes -12.0509
176
root 0.759122 17.94 -0.675889 0.725043 -30.5153 2.20195
lowerback 1.09118 -1.71483 -4.62535
upperback -0.210398 -2.33761 2.56212
thorax -0.53628 -1.15335 5.27637
lowerneck -22.7631 1.29176 -10.5786
upperneck 15.0334 4.1462 4.99034
head 8.04763 1.87623 3.93721
rclavicle -9.12173e-014 -1.59028e-015
rhumerus -34.6727 -8.72812 -70.5212
rradius 39.0231
rwrist 13.986
rhand -26.5776 11.8542
rfingers 7.12502
rthumb -0.012126 -18.1255
lclavicle -9.12173e-014 -1.59028e-015
lhumerus 35.9605 -7.85134 56.462
lradius 105.28
lwrist -3.32247
lhand -35.3037 28.4599
lfingers 7.12502
lthumb -8.43789 58.2714
rfemur -9.97492 2.79673 9.95896
rtibia 24.5273
rfoot -15.0958 -9.91921
rtoes 0.4145
lfemur -1.02704 1.14287 -24.2975
ltibia 14.3775
lfoot -10.3402 6.90188
ltoes -11.8237
